<?xml version="1.0" encoding="UTF-8"?>
<!-- Generator: visioncortex VTracer 0.6.3 -->
<svg version="1.1" xmlns="http://www.w3.org/2000/svg" width="1218" height="1280">
<path d="M0 0 C0.33 0.66 0.66 1.32 1 2 C1.68 1.99 2.35 1.98 3.05 1.96 C4.38 1.95 4.38 1.95 5.75 1.94 C7.07 1.92 7.07 1.92 8.42 1.9 C10.78 1.99 12.74 2.33 15 3 C15.33 2.34 15.66 1.68 16 1 C16 1.66 16 2.32 16 3 C17.26 2.99 17.26 2.99 18.54 2.98 C38.98 2.78 59.41 2.61 79.84 2.45 C89.72 2.38 99.6 2.3 109.48 2.2 C118.09 2.12 126.7 2.05 135.31 1.99 C139.87 1.96 144.43 1.92 148.99 1.87 C153.29 1.82 157.58 1.79 161.87 1.77 C163.45 1.76 165.02 1.74 166.6 1.72 C168.75 1.69 170.9 1.68 173.05 1.68 C174.26 1.67 175.46 1.66 176.7 1.65 C180.38 2.04 182.81 3.16 186 5 C185.34 5.33 184.68 5.66 184 6 C185.32 6 186.64 6 188 6 C188 7.65 188 9.3 188 11 C187.34 11 186.68 11 186 11 C186.33 15.29 186.66 19.58 187 24 C187.33 24 187.66 24 188 24 C188.25 31.62 188.25 31.62 186 35 C185.81 37.46 185.73 39.81 185.74 42.27 C185.74 43.02 185.73 43.77 185.73 44.54 C185.72 47.07 185.72 49.6 185.73 52.13 C185.72 53.96 185.72 55.78 185.71 57.61 C185.7 62.64 185.7 67.67 185.7 72.7 C185.7 78.12 185.68 83.54 185.67 88.96 C185.65 98.35 185.64 107.75 185.63 117.14 C185.62 130.73 185.6 144.31 185.58 157.9 C185.54 179.94 185.5 201.97 185.48 224.01 C185.48 225.33 185.47 226.65 185.47 228.01 C185.47 228.67 185.47 229.34 185.47 230.02 C185.47 233.36 185.46 236.7 185.46 240.04 C185.46 240.7 185.46 241.37 185.45 242.05 C185.44 257.45 185.41 272.85 185.39 288.25 C185.39 289.57 185.39 290.88 185.39 292.24 C185.36 314.2 185.32 336.16 185.28 358.12 C185.26 371.67 185.24 385.23 185.23 398.79 C185.22 408.07 185.2 417.35 185.19 426.63 C185.18 432 185.17 437.36 185.17 442.72 C185.17 447.62 185.16 452.52 185.15 457.42 C185.15 459.21 185.14 460.99 185.15 462.77 C185.15 465.17 185.14 467.58 185.13 469.98 C185.14 471.04 185.14 471.04 185.14 472.12 C185.11 476.89 185.11 476.89 184 478 C184.33 478 184.66 478 185 478 C185 496.48 185 514.96 185 534 C185.33 534 185.66 534 186 534 C186.2 535.37 186.38 536.75 186.56 538.12 C186.67 538.89 186.77 539.66 186.88 540.45 C187 543 187 543 186.51 545.7 C185.95 549.3 185.89 552.69 185.9 556.33 C185.9 557.01 185.91 557.69 185.91 558.38 C185.91 560.53 185.92 562.67 185.94 564.81 C185.94 566.27 185.95 567.73 185.95 569.19 C185.96 572.79 185.98 576.4 186 580 C186 580.33 186 580.66 186 581 C189.19 582.06 191.43 582.12 194.78 582.11 C195.99 582.11 197.2 582.11 198.45 582.12 C199.8 582.11 201.16 582.11 202.51 582.1 C203.94 582.1 205.37 582.1 206.8 582.1 C210.74 582.09 214.68 582.08 218.63 582.07 C222.87 582.06 227.12 582.06 231.37 582.05 C238.73 582.04 246.09 582.03 253.46 582.01 C265.09 581.99 276.72 581.98 288.36 581.97 C292.33 581.96 296.31 581.96 300.29 581.95 C301.28 581.95 302.28 581.95 303.3 581.95 C314.62 581.94 325.94 581.93 337.26 581.91 C338.3 581.91 339.33 581.91 340.4 581.91 C357.18 581.88 373.96 581.85 390.74 581.82 C407.96 581.79 425.17 581.77 442.39 581.76 C453.02 581.75 463.64 581.73 474.27 581.71 C481.55 581.69 488.83 581.68 496.11 581.68 C500.31 581.68 504.51 581.67 508.71 581.66 C512.56 581.64 516.4 581.64 520.25 581.65 C521.64 581.65 523.04 581.64 524.43 581.63 C526.32 581.62 528.21 581.63 530.1 581.63 C531.15 581.63 532.2 581.63 533.28 581.63 C536.39 582.05 537.76 582.84 540 585 C540.65 587.16 540.65 587.16 540.86 589.63 C540.95 590.52 541.03 591.41 541.11 592.32 C541.21 593.71 541.21 593.71 541.31 595.12 C541.4 596.06 541.48 596.99 541.57 597.95 C541.99 602.89 541.99 602.89 542 605 C541.67 605.33 541.34 605.66 541 606 C540.91 607.52 540.88 609.05 540.89 610.58 C540.89 611.57 540.89 612.56 540.89 613.58 C540.89 615.23 540.89 615.23 540.9 616.9 C540.9 618.05 540.91 619.2 540.91 620.38 C540.91 622.89 540.92 625.4 540.92 627.9 C540.94 631.89 540.94 635.87 540.95 639.85 C540.96 649.05 540.98 658.26 541.01 667.46 C541.03 675.84 541.04 684.22 541.05 692.61 C541.06 697.17 541.07 701.74 541.09 706.31 C541.11 717.1 541.08 727.87 540.56 738.65 C540.52 739.48 540.48 740.31 540.44 741.16 C540.13 746.74 540.13 746.74 539 749 C538.34 749 537.68 749 537 749 C536.67 748.01 536.34 747.02 536 746 C536 746.99 536 747.98 536 749 C535.34 749 534.68 749 534 749 C533.67 749.66 533.34 750.32 533 751 C531.93 750.36 530.86 749.72 529.75 749.06 C527.19 747.59 524.95 746.47 522 746 C522 746.66 522 747.32 522 748 C518.49 750.34 517.09 750.25 512.94 750.26 C511.66 750.27 510.38 750.28 509.07 750.28 C507.64 750.28 506.22 750.28 504.79 750.28 C503.28 750.28 501.77 750.29 500.26 750.3 C496.1 750.31 491.94 750.32 487.78 750.32 C483.29 750.32 478.8 750.34 474.3 750.35 C465.47 750.37 456.63 750.39 447.79 750.4 C437.39 750.41 426.99 750.44 416.58 750.46 C397.87 750.51 379.16 750.55 360.45 750.58 C342.57 750.61 324.69 750.64 306.8 750.68 C305.72 750.69 304.63 750.69 303.52 750.69 C299.14 750.7 294.77 750.71 290.4 750.72 C240.66 750.83 190.91 750.92 141.17 750.99 C134.98 751 128.79 751.01 122.6 751.02 C105.94 751.04 89.28 751.07 72.62 751.08 C66.17 751.08 59.71 751.09 53.26 751.1 C47.48 751.11 41.7 751.11 35.93 751.11 C33.87 751.11 31.82 751.11 29.76 751.12 C27.02 751.12 24.27 751.12 21.52 751.12 C20.73 751.12 19.95 751.13 19.14 751.13 C14.98 751.12 11.07 750.81 7 750 C7.66 749.34 8.32 748.68 9 748 C8.42 748.31 7.85 748.62 7.25 748.94 C3.37 750.77 3.37 750.77 1 751 C-1.23 749.36 -1.93 748.4 -2.43 745.66 C-2.46 744.76 -2.48 743.85 -2.51 742.91 C-2.55 741.91 -2.58 740.9 -2.62 739.86 C-2.65 738.26 -2.65 738.26 -2.69 736.62 C-2.72 735.53 -2.75 734.43 -2.79 733.3 C-2.87 730.2 -2.94 727.1 -3 724 C-3.03 722.78 -3.06 721.56 -3.09 720.3 C-3.22 709.86 -2.53 699.42 -2 689 C-2.66 688.67 -3.32 688.34 -4 688 C-3.34 688 -2.68 688 -2 688 C-2.01 687.3 -2.01 686.6 -2.02 685.88 C-2.14 668.42 -2.27 650.96 -2.39 633.5 C-2.45 625.06 -2.51 616.61 -2.57 608.17 C-3.17 527.66 -2.97 447.16 -2.55 352.07 C-2.51 342.13 -2.47 332.18 -2.43 322.24 C-2.42 321.17 -2.42 321.17 -2.42 320.09 C-2.4 316.52 -2.39 312.96 -2.37 309.4 C-2.25 280.27 -2.13 251.13 -2 222 C-2.66 221.67 -3.32 221.34 -4 221 C-3.34 221 -2.68 221 -2 221 C-2.01 220.34 -2.03 219.67 -2.04 218.99 C-2.9 172.29 -3.11 125.6 -3.12 78.9 C-3.12 73.47 -3.13 68.04 -3.13 62.62 C-3.14 55.21 -3.14 47.8 -3.13 40.4 C-3.13 37.62 -3.13 34.85 -3.14 32.08 C-3.14 28.26 -3.13 24.44 -3.13 20.62 C-3.13 19.5 -3.13 18.37 -3.14 17.21 C-3.13 16.18 -3.13 15.15 -3.13 14.09 C-3.13 13.2 -3.13 12.3 -3.13 11.39 C-3.01 9.12 -2.64 7.17 -2 5 C-2.66 4.67 -3.32 4.34 -4 4 C-2.68 2.68 -1.36 1.36 0 0 Z M185 28 C185 29.65 185 31.3 185 33 C185.33 33 185.66 33 186 33 C186 31.35 186 29.7 186 28 C185.67 28 185.34 28 185 28 Z M182 41 C183 44 183 44 183 44 Z M184 538 C184 541.63 184 545.26 184 549 C184.33 549 184.66 549 185 549 C185 545.37 185 541.74 185 538 C184.67 538 184.34 538 184 538 Z M538 612 C539 616 539 616 539 616 Z M538 617 C538 618.65 538 620.3 538 622 C538.33 622 538.66 622 539 622 C539 620.35 539 618.7 539 617 C538.67 617 538.34 617 538 617 Z M538 628 C538 629.65 538 631.3 538 633 C538.33 633 538.66 633 539 633 C539 631.35 539 629.7 539 628 C538.67 628 538.34 628 538 628 Z M538 674 C539 676 539 676 539 676 Z M538 713 C539 717 539 717 539 717 Z M538 721 C539 723 539 723 539 723 Z M539 725 C540 727 540 727 540 727 Z M537 727 C538 730 538 730 538 730 Z M537 732 C538 735 538 735 538 735 Z M537 736 C536.32 739.4 536.32 739.4 536 743 C536.66 743.66 537.32 744.32 538 745 C538 742.03 538 739.06 538 736 C537.67 736 537.34 736 537 736 Z M0 747 C0 747.66 0 748.32 0 749 C0.66 748.67 1.32 748.34 2 748 C1.34 747.67 0.68 747.34 0 747 Z M517 745 C517 745.66 517 746.32 517 747 C516.01 747.33 515.02 747.66 514 748 C515.32 748 516.64 748 518 748 C517.67 747.01 517.34 746.02 517 745 Z M130 748 C130 748.33 130 748.66 130 749 C256.72 749 383.44 749 514 749 C514 748.67 514 748.34 514 748 C387.28 748 260.56 748 130 748 Z " fill="#0A88FA" transform="translate(340,268)"/>
<path d="M0 0 C2 2 2 2 2.24 4.59 C2.24 5.69 2.23 6.79 2.23 7.92 C2.23 9.16 2.23 10.4 2.23 11.68 C2.22 13.04 2.21 14.4 2.2 15.76 C2.19 17.15 2.19 18.53 2.19 19.92 C2.18 23.57 2.16 27.23 2.14 30.88 C2.12 34.6 2.11 38.33 2.1 42.06 C2.08 49.37 2.04 56.69 2 64 C2.99 64.33 3.98 64.66 5 65 C6.7 70.22 7.24 74.81 7.2 80.32 C7.2 81.02 7.19 81.73 7.19 82.45 C7.18 84.82 7.16 87.2 7.13 89.57 C7.12 91.32 7.11 93.07 7.11 94.83 C7.09 98.73 7.06 102.64 7.04 106.55 C6.99 113.37 6.98 120.19 6.97 127.01 C6.97 128.85 6.97 128.85 6.97 130.72 C6.97 133.27 6.96 135.82 6.96 138.37 C6.95 145.13 6.94 151.89 6.92 158.65 C6.92 159.34 6.92 160.04 6.92 160.76 C6.88 181.1 6.82 201.45 6.76 221.79 C6.76 224.95 6.75 228.11 6.74 231.26 C6.74 232.05 6.73 232.83 6.73 233.64 C6.7 246.46 6.67 259.28 6.65 272.1 C6.63 285.33 6.59 298.57 6.55 311.8 C6.52 319.93 6.51 328.06 6.5 336.19 C6.49 342.39 6.47 348.58 6.45 354.78 C6.44 357.32 6.43 359.86 6.43 362.41 C6.44 365.87 6.42 369.32 6.4 372.78 C6.4 373.8 6.41 374.81 6.41 375.86 C6.4 377.24 6.4 377.24 6.38 378.65 C6.38 379.45 6.38 380.24 6.38 381.07 C6.25 381.7 6.13 382.34 6 383 C5.01 383.66 4.02 384.32 3 385 C2.28 387.06 2.28 387.06 2 389 C2.33 389 2.66 389 3 389 C3.04 391.33 3.04 393.67 3 396 C2.67 396.33 2.34 396.66 2 397 C1.9 398.73 1.88 400.47 1.88 402.21 C1.88 403.34 1.88 404.47 1.88 405.63 C1.88 406.88 1.88 408.13 1.89 409.41 C1.89 410.72 1.89 412.03 1.89 413.38 C1.89 416.97 1.89 420.57 1.9 424.16 C1.9 427.91 1.91 431.67 1.91 435.42 C1.91 442.53 1.92 449.64 1.93 456.75 C1.94 464.85 1.94 472.94 1.95 481.04 C1.96 497.69 1.98 514.35 2 531 C2.99 531.33 3.98 531.66 5 532 C6.35 534.7 6.22 536.92 6.32 539.93 C6.36 541.14 6.4 542.35 6.44 543.59 C6.48 544.86 6.52 546.13 6.56 547.44 C6.61 548.67 6.65 549.91 6.69 551.18 C6.94 558.45 7.06 565.72 7 573 C5.35 573.33 3.7 573.66 2 574 C2 575.98 2 577.96 2 580 C17.97 583.37 34.08 583.26 50.31 583.22 C51.16 583.21 52 583.21 52.88 583.21 C54.66 583.21 56.45 583.2 58.24 583.2 C60.87 583.19 63.51 583.18 66.15 583.17 C85.5 583.12 104.85 583.05 124.21 582.78 C125.73 582.76 127.25 582.74 128.77 582.72 C129.93 582.7 129.93 582.7 131.11 582.68 C178.64 582.03 226.17 581.87 273.71 581.77 C279.28 581.75 284.85 581.74 290.41 581.73 C326 581.65 361.59 581.58 397.18 581.52 C413.46 581.49 429.74 581.46 446.02 581.42 C455.98 581.39 465.95 581.37 475.91 581.36 C482.67 581.36 489.43 581.34 496.19 581.32 C500.08 581.31 503.98 581.3 507.87 581.3 C512.08 581.3 516.29 581.29 520.5 581.27 C521.73 581.27 522.97 581.28 524.24 581.28 C525.36 581.27 526.48 581.27 527.64 581.26 C529.09 581.26 529.09 581.26 530.58 581.25 C533.26 581.16 533.26 581.16 536 579 C536.47 576.26 536.18 573.8 536 571 C535.67 570.67 535.34 570.34 535 570 C534.9 567.74 534.87 565.47 534.87 563.2 C534.87 562.49 534.87 561.78 534.87 561.05 C534.86 558.69 534.86 556.33 534.87 553.97 C534.87 552.34 534.87 550.7 534.86 549.07 C534.86 545.64 534.86 542.22 534.87 538.79 C534.88 534.39 534.87 529.99 534.87 525.58 C534.86 522.21 534.86 518.84 534.87 515.47 C534.87 513.84 534.87 512.22 534.86 510.59 C534.86 508.33 534.87 506.06 534.87 503.8 C534.87 501.86 534.87 501.86 534.87 499.88 C535 497 535 497 536 496 C537.29 488.38 537.18 480.58 537.19 472.88 C537.2 471.75 537.21 470.62 537.22 469.46 C537.24 463.21 536.67 458 535 452 C534.66 449.33 534.52 446.7 534.38 444 C534.32 442.98 534.32 442.98 534.26 441.94 C534.17 440.29 534.08 438.65 534 437 C531.23 436.08 529.6 435.88 526.74 435.88 C525.86 435.88 524.98 435.88 524.08 435.88 C522.64 435.88 522.64 435.88 521.17 435.89 C520.14 435.89 519.12 435.89 518.07 435.89 C514.62 435.89 511.17 435.89 507.73 435.9 C505.26 435.9 502.8 435.91 500.33 435.91 C495 435.91 489.67 435.92 484.34 435.92 C476.56 435.94 468.79 435.94 461.02 435.95 C448.32 435.95 435.63 435.97 422.93 435.98 C422.17 435.98 421.41 435.98 420.63 435.98 C413.73 435.99 406.84 436 399.94 436.01 C395.42 436.01 390.89 436.02 386.37 436.02 C385.63 436.02 384.89 436.02 384.12 436.02 C371.54 436.04 358.96 436.05 346.38 436.05 C339.35 436.06 332.32 436.06 325.3 436.08 C296.2 436.12 267.12 436.03 238.03 435.56 C236.75 435.54 235.48 435.52 234.16 435.5 C230.57 435.44 226.98 435.38 223.39 435.31 C222.34 435.3 221.28 435.28 220.19 435.26 C215.04 435.16 210.08 434.88 205 434 C208.5 431.67 209.87 431.75 214 431.76 C215.23 431.75 216.47 431.75 217.74 431.75 C219.09 431.75 220.44 431.76 221.79 431.77 C223.17 431.77 224.55 431.77 225.93 431.77 C228.82 431.77 231.71 431.78 234.61 431.79 C238.32 431.81 242.03 431.82 245.74 431.81 C248.59 431.81 251.44 431.82 254.29 431.83 C255.66 431.83 257.03 431.83 258.4 431.83 C260.31 431.84 262.22 431.84 264.13 431.85 C265.22 431.86 266.31 431.86 267.43 431.87 C270 432 270 432 272 433 C273.44 433.09 274.88 433.11 276.32 433.11 C277.24 433.11 278.15 433.1 279.09 433.1 C280.1 433.1 281.11 433.09 282.15 433.08 C283.22 433.08 284.28 433.08 285.38 433.07 C288.98 433.06 292.59 433.04 296.19 433.02 C298.76 433.01 301.33 433 303.9 432.99 C309.45 432.97 315 432.95 320.55 432.92 C328.57 432.88 336.59 432.85 344.62 432.82 C357.63 432.76 370.65 432.71 383.66 432.65 C396.31 432.59 408.95 432.53 421.6 432.48 C422.38 432.48 423.16 432.48 423.96 432.47 C427.87 432.46 431.78 432.44 435.68 432.42 C468.12 432.29 500.56 432.15 533 432 C533.33 430.35 533.66 428.7 534 427 C533.34 426.67 532.68 426.34 532 426 C537.36 425.63 537.36 425.63 540.15 427.22 C542.43 429.41 542.6 430.52 542.86 433.63 C542.95 434.52 543.03 435.41 543.11 436.32 C543.21 437.71 543.21 437.71 543.31 439.12 C543.4 440.06 543.48 440.99 543.57 441.95 C543.99 446.89 543.99 446.89 544 449 C543.67 449.33 543.34 449.66 543 450 C542.91 451.52 542.88 453.05 542.89 454.58 C542.89 455.57 542.89 456.56 542.89 457.58 C542.89 459.23 542.89 459.23 542.9 460.9 C542.9 462.05 542.91 463.2 542.91 464.38 C542.91 466.89 542.92 469.4 542.92 471.9 C542.94 475.89 542.94 479.87 542.95 483.85 C542.96 493.05 542.98 502.26 543.01 511.46 C543.03 519.84 543.04 528.22 543.05 536.61 C543.06 541.17 543.07 545.74 543.09 550.31 C543.11 561.1 543.08 571.87 542.56 582.65 C542.52 583.48 542.48 584.31 542.44 585.16 C542.13 590.74 542.13 590.74 541 593 C540.34 593 539.68 593 539 593 C538.67 592.01 538.34 591.02 538 590 C538 590.99 538 591.98 538 593 C537.34 593 536.68 593 536 593 C535.67 593.66 535.34 594.32 535 595 C533.93 594.36 532.86 593.72 531.75 593.06 C529.19 591.59 526.95 590.47 524 590 C524 590.66 524 591.32 524 592 C520.49 594.34 519.09 594.25 514.94 594.26 C513.66 594.27 512.38 594.28 511.07 594.28 C509.64 594.28 508.22 594.28 506.79 594.28 C505.28 594.28 503.77 594.29 502.26 594.3 C498.1 594.31 493.94 594.32 489.78 594.32 C485.29 594.32 480.8 594.34 476.3 594.35 C467.47 594.37 458.63 594.39 449.79 594.4 C439.39 594.41 428.99 594.44 418.58 594.46 C399.87 594.51 381.16 594.55 362.45 594.58 C344.57 594.61 326.69 594.64 308.8 594.68 C307.72 594.69 306.63 594.69 305.52 594.69 C301.14 594.7 296.77 594.71 292.4 594.72 C242.66 594.83 192.91 594.92 143.17 594.99 C136.98 595 130.79 595.01 124.6 595.02 C107.94 595.04 91.28 595.07 74.62 595.08 C68.17 595.08 61.71 595.09 55.26 595.1 C49.48 595.11 43.7 595.11 37.93 595.11 C35.87 595.11 33.82 595.11 31.76 595.12 C29.02 595.12 26.27 595.12 23.52 595.12 C22.73 595.12 21.95 595.13 21.14 595.13 C16.98 595.12 13.07 594.81 9 594 C9.66 593.34 10.32 592.68 11 592 C10.42 592.31 9.85 592.62 9.25 592.94 C5.37 594.77 5.37 594.77 3 595 C0.77 593.36 0.07 592.4 -0.43 589.66 C-0.46 588.76 -0.48 587.85 -0.51 586.91 C-0.55 585.91 -0.58 584.9 -0.62 583.86 C-0.65 582.26 -0.65 582.26 -0.69 580.62 C-0.72 579.53 -0.75 578.43 -0.79 577.3 C-0.87 574.2 -0.94 571.1 -1 568 C-1.03 566.78 -1.06 565.56 -1.09 564.3 C-1.22 553.86 -0.53 543.42 0 533 C-0.66 532.67 -1.32 532.34 -2 532 C-1.34 532 -0.68 532 0 532 C-0.01 531.3 -0.01 530.6 -0.02 529.88 C-0.14 512.42 -0.27 494.96 -0.39 477.5 C-0.45 469.06 -0.51 460.61 -0.57 452.17 C-1.17 371.66 -0.97 291.16 -0.55 196.07 C-0.51 186.13 -0.47 176.18 -0.43 166.24 C-0.42 165.53 -0.42 164.82 -0.42 164.09 C-0.4 160.52 -0.39 156.96 -0.37 153.4 C-0.25 124.27 -0.13 95.13 0 66 C-0.66 65.67 -1.32 65.34 -2 65 C-1.34 65 -0.68 65 0 65 C0 43.55 0 22.1 0 0 Z M540 456 C541 460 541 460 541 460 Z M540 461 C540 462.65 540 464.3 540 466 C540.33 466 540.66 466 541 466 C541 464.35 541 462.7 541 461 C540.67 461 540.34 461 540 461 Z M540 472 C540 473.65 540 475.3 540 477 C540.33 477 540.66 477 541 477 C541 475.35 541 473.7 541 472 C540.67 472 540.34 472 540 472 Z M540 518 C541 520 541 520 541 520 Z M540 557 C541 561 541 561 541 561 Z M540 565 C541 567 541 567 541 567 Z M541 569 C542 571 542 571 542 571 Z M539 571 C540 574 540 574 540 574 Z M539 576 C540 579 540 579 540 579 Z M539 580 C538.32 583.4 538.32 583.4 538 587 C538.66 587.66 539.32 588.32 540 589 C540 586.03 540 583.06 540 580 C539.67 580 539.34 580 539 580 Z M2 591 C2 591.66 2 592.32 2 593 C2.66 592.67 3.32 592.34 4 592 C3.34 591.67 2.68 591.34 2 591 Z M519 589 C519 589.66 519 590.32 519 591 C518.01 591.33 517.02 591.66 516 592 C517.32 592 518.64 592 520 592 C519.67 591.01 519.34 590.02 519 589 Z M132 592 C132 592.33 132 592.66 132 593 C258.72 593 385.44 593 516 593 C516 592.67 516 592.34 516 592 C389.28 592 262.56 592 132 592 Z " fill="#214B8F" transform="translate(338,424)"/>
<path d="M0 0 C0.33 0.66 0.66 1.32 1 2 C2.26 1.99 2.26 1.99 3.54 1.98 C23.98 1.78 44.41 1.61 64.84 1.45 C74.72 1.38 84.6 1.3 94.48 1.2 C103.09 1.12 111.7 1.05 120.31 0.99 C124.87 0.96 129.43 0.92 133.99 0.87 C138.29 0.82 142.58 0.79 146.87 0.77 C148.45 0.76 150.02 0.74 151.6 0.72 C153.75 0.69 155.9 0.68 158.05 0.68 C159.26 0.67 160.46 0.66 161.7 0.65 C165.38 1.04 167.81 2.16 171 4 C170.34 4.33 169.68 4.66 169 5 C170.32 5 171.64 5 173 5 C173 6.65 173 8.3 173 10 C172.34 10 171.68 10 171 10 C171.33 14.29 171.66 18.58 172 23 C172.33 23 172.66 23 173 23 C173.25 30.62 173.25 30.62 171 34 C170.81 36.46 170.73 38.81 170.74 41.27 C170.74 42.02 170.73 42.77 170.73 43.54 C170.72 46.07 170.72 48.6 170.73 51.13 C170.72 52.96 170.72 54.78 170.71 56.61 C170.7 61.64 170.7 66.67 170.7 71.7 C170.7 77.12 170.68 82.54 170.67 87.96 C170.65 97.35 170.64 106.75 170.63 116.14 C170.62 129.73 170.6 143.31 170.58 156.9 C170.54 178.94 170.5 200.97 170.48 223.01 C170.48 224.33 170.47 225.65 170.47 227.01 C170.47 227.67 170.47 228.34 170.47 229.02 C170.47 232.36 170.46 235.7 170.46 239.04 C170.46 239.7 170.46 240.37 170.45 241.05 C170.44 256.45 170.41 271.85 170.39 287.25 C170.39 288.57 170.39 289.88 170.39 291.24 C170.36 313.2 170.32 335.16 170.28 357.12 C170.26 370.67 170.24 384.23 170.23 397.79 C170.22 407.07 170.2 416.35 170.19 425.63 C170.18 431 170.17 436.36 170.17 441.72 C170.17 446.62 170.16 451.52 170.15 456.42 C170.15 458.21 170.14 459.99 170.15 461.77 C170.15 464.17 170.14 466.58 170.13 468.98 C170.14 470.04 170.14 470.04 170.14 471.12 C170.11 475.89 170.11 475.89 169 477 C169.33 477 169.66 477 170 477 C170 495.48 170 513.96 170 533 C170.33 533 170.66 533 171 533 C171.76 538.23 172.21 542.77 171 548 C169.68 548.33 168.36 548.66 167 549 C167.01 549.82 167.02 550.63 167.03 551.48 C167.07 555.19 167.1 558.91 167.12 562.62 C167.15 564.55 167.15 564.55 167.18 566.52 C167.18 567.76 167.19 569.01 167.2 570.29 C167.21 571.43 167.22 572.57 167.23 573.75 C166.99 577.14 166.21 579.84 165 583 C164.01 583 163.02 583 162 583 C160.86 576.75 160.96 570.71 161.12 564.37 C161.17 561.88 161.22 559.39 161.26 556.9 C161.29 555.54 161.32 554.18 161.35 552.82 C162 520.61 162.1 488.4 162.1 456.19 C162.1 454.44 162.1 454.44 162.1 452.65 C162.1 437.76 162.08 422.88 162.07 407.99 C162.06 394.77 162.06 381.54 162.05 368.31 C162.05 361.49 162.05 354.67 162.05 347.85 C162.05 347.16 162.05 346.48 162.04 345.78 C162.04 329.71 162.03 313.65 162.02 297.58 C162.02 296.89 162.02 296.19 162.02 295.47 C162.01 286.24 162.01 277.01 162 267.78 C161.99 254.88 161.99 241.98 161.98 229.07 C161.98 228.36 161.98 227.65 161.98 226.92 C161.97 210.75 161.96 194.57 161.95 178.4 C161.95 177.72 161.95 177.04 161.95 176.34 C161.95 169.57 161.95 162.8 161.95 156.02 C161.94 140.86 161.93 125.69 161.92 110.53 C161.91 100.64 161.91 90.76 161.91 80.88 C161.9 75.18 161.9 69.48 161.89 63.78 C161.89 58.57 161.89 53.36 161.89 48.15 C161.89 46.26 161.88 44.37 161.88 42.48 C161.88 39.93 161.88 37.37 161.88 34.81 C161.88 34.07 161.87 33.33 161.87 32.57 C161.88 29.21 162.07 26.23 163 23 C163.24 18.04 163.26 14.53 161 10 C154.21 9.86 154.21 9.86 147.5 10.69 C144.01 11 142.78 10.69 139.61 9.54 C133.29 7.57 127.29 7.63 120.72 7.72 C119.43 7.73 118.13 7.73 116.8 7.74 C113.29 7.76 109.78 7.79 106.26 7.83 C102.57 7.87 98.88 7.9 95.2 7.92 C89.01 7.97 82.83 8.03 76.64 8.09 C69.49 8.17 62.35 8.22 55.2 8.27 C48.31 8.32 41.42 8.38 34.53 8.44 C31.6 8.47 28.68 8.49 25.75 8.51 C21.67 8.54 17.59 8.59 13.5 8.63 C12.29 8.64 11.08 8.65 9.83 8.65 C8.16 8.68 8.16 8.68 6.46 8.7 C5.5 8.71 4.53 8.72 3.54 8.73 C0.9 9.01 -0.68 9.76 -3 11 C-5.36 10.76 -5.36 10.76 -7.75 10.12 C-8.55 9.92 -9.35 9.72 -10.17 9.51 C-11.08 9.26 -11.08 9.26 -12 9 C-11.84 9.88 -11.68 10.75 -11.51 11.65 C-11.05 14.68 -10.86 17.49 -10.84 20.54 C-10.83 21.62 -10.82 22.7 -10.81 23.81 C-10.81 24.97 -10.8 26.14 -10.79 27.34 C-10.78 28.58 -10.77 29.82 -10.76 31.1 C-10.74 34.48 -10.72 37.87 -10.7 41.25 C-10.67 44.8 -10.65 48.34 -10.62 51.88 C-10.57 58.59 -10.53 65.29 -10.48 72 C-10.43 79.63 -10.38 87.27 -10.32 94.9 C-10.21 110.6 -10.1 126.3 -10 142 C-11.32 142.33 -12.64 142.66 -14 143 C-15.27 140.45 -15.13 138.67 -15.13 135.82 C-15.13 134.72 -15.13 133.62 -15.14 132.49 C-15.13 131.28 -15.13 130.07 -15.13 128.83 C-15.13 127.56 -15.13 126.29 -15.13 124.98 C-15.14 121.49 -15.14 118 -15.13 114.51 C-15.13 110.86 -15.13 107.21 -15.14 103.56 C-15.14 97.42 -15.14 91.29 -15.13 85.15 C-15.12 78.07 -15.13 70.98 -15.13 63.89 C-15.14 57.8 -15.14 51.72 -15.13 45.63 C-15.13 42 -15.13 38.36 -15.14 34.73 C-15.14 30.67 -15.13 26.62 -15.13 22.56 C-15.13 21.36 -15.13 20.15 -15.14 18.91 C-15.13 17.81 -15.13 16.7 -15.13 15.56 C-15.13 14.6 -15.13 13.64 -15.13 12.66 C-15 10.01 -14.59 7.58 -14 5 C-8.74 4.68 -5.55 5.33 -1 8 C-1 7.34 -1 6.68 -1 6 C-1.99 5.67 -2.98 5.34 -4 5 C-4.69 2.94 -4.69 2.94 -5 1 C-3.35 1.33 -1.7 1.66 0 2 C0 1.34 0 0.68 0 0 Z M170 27 C170 28.65 170 30.3 170 32 C170.33 32 170.66 32 171 32 C171 30.35 171 28.7 171 27 C170.67 27 170.34 27 170 27 Z M167 40 C168 43 168 43 168 43 Z " fill="#234C8F" transform="translate(355,269)"/>
<path d="M0 0 C14.37 0 28.73 0 43.1 -0 C60.05 -0.01 77 -0.01 93.95 -0.01 C95.76 -0 97.57 -0 99.38 -0 C100.27 -0 101.16 -0 102.08 -0 C108.25 -0 114.42 -0 120.59 -0.01 C128.09 -0.01 135.59 -0.01 143.09 -0 C146.89 -0 150.69 0 154.49 -0 C170.96 -0.02 187.39 0.18 203.85 0.77 C215.84 1.21 227.83 1.24 239.83 1.13 C239.5 3.11 239.17 5.09 238.83 7.13 C238.17 7.13 237.51 7.13 236.83 7.13 C236.5 7.79 236.17 8.45 235.83 9.13 C234.22 8.17 234.22 8.17 232.58 7.19 C230.02 5.72 227.78 4.6 224.83 4.13 C224.83 4.79 224.83 5.45 224.83 6.13 C221.32 8.47 219.92 8.38 215.77 8.39 C214.49 8.4 213.22 8.41 211.9 8.41 C210.47 8.41 209.05 8.41 207.62 8.41 C206.11 8.41 204.6 8.42 203.1 8.43 C198.93 8.44 194.77 8.44 190.61 8.45 C186.12 8.45 181.63 8.46 177.13 8.48 C168.3 8.5 159.46 8.52 150.62 8.53 C140.22 8.54 129.82 8.57 119.41 8.59 C100.7 8.64 81.99 8.68 63.28 8.71 C45.4 8.74 27.52 8.77 9.64 8.81 C8.55 8.81 7.46 8.82 6.35 8.82 C1.97 8.83 -2.4 8.84 -6.77 8.85 C-56.51 8.96 -106.26 9.05 -156 9.12 C-162.19 9.13 -168.38 9.14 -174.57 9.15 C-191.23 9.17 -207.89 9.19 -224.55 9.21 C-231 9.21 -237.46 9.22 -243.91 9.23 C-249.69 9.24 -255.47 9.24 -261.24 9.24 C-263.3 9.24 -265.35 9.24 -267.41 9.25 C-270.15 9.25 -272.9 9.25 -275.65 9.25 C-276.83 9.25 -276.83 9.25 -278.03 9.26 C-282.19 9.25 -286.1 8.94 -290.17 8.13 C-289.51 7.47 -288.85 6.81 -288.17 6.13 C-290.48 6.46 -292.79 6.79 -295.17 7.13 C-295.83 5.48 -296.49 3.83 -297.17 2.13 C-296.17 1.13 -296.17 1.13 -293.17 1 C-290.17 1.13 -290.17 1.13 -289.17 2.13 C-286.72 2.23 -284.3 2.27 -281.85 2.26 C-281.11 2.26 -280.37 2.26 -279.61 2.27 C-278.04 2.27 -276.47 2.26 -274.9 2.26 C-272.51 2.25 -270.12 2.26 -267.73 2.27 C-266.21 2.27 -264.68 2.26 -263.16 2.26 C-262.45 2.26 -261.74 2.27 -261.01 2.27 C-258.07 2.25 -255.27 2.15 -252.37 1.63 C-248.94 1.09 -245.68 0.97 -242.21 0.93 C-241.52 0.92 -240.84 0.91 -240.13 0.9 C-237.81 0.87 -235.48 0.84 -233.16 0.82 C-231.45 0.8 -229.74 0.78 -228.02 0.76 C-223.21 0.7 -218.4 0.65 -213.59 0.6 C-210.45 0.57 -207.31 0.54 -204.18 0.51 C-136.12 -0.16 -68.06 -0.02 0 0 Z M219.83 3.13 C219.83 3.79 219.83 4.45 219.83 5.13 C218.84 5.46 217.85 5.79 216.83 6.13 C218.15 6.13 219.47 6.13 220.83 6.13 C220.5 5.14 220.17 4.15 219.83 3.13 Z M-167.17 6.13 C-167.17 6.46 -167.17 6.79 -167.17 7.13 C-40.45 7.13 86.27 7.13 216.83 7.13 C216.83 6.8 216.83 6.47 216.83 6.13 C90.11 6.13 -36.61 6.13 -167.17 6.13 Z " fill="#0A88FA" transform="translate(637.1696048676968,1009.8705381453037)"/>
<path d="M0 0 C2 2 2 2 2.24 4.59 C2.24 5.69 2.23 6.79 2.23 7.92 C2.23 9.16 2.23 10.4 2.23 11.68 C2.22 13.04 2.21 14.4 2.2 15.76 C2.19 17.15 2.19 18.53 2.19 19.92 C2.18 23.57 2.16 27.23 2.14 30.88 C2.12 34.6 2.11 38.33 2.1 42.06 C2.08 49.37 2.04 56.69 2 64 C2.99 64.33 3.98 64.66 5 65 C6.7 70.22 7.24 74.81 7.2 80.32 C7.2 81.02 7.19 81.73 7.19 82.45 C7.18 84.82 7.16 87.2 7.13 89.57 C7.12 91.32 7.11 93.07 7.11 94.83 C7.09 98.73 7.06 102.64 7.04 106.55 C6.99 113.37 6.98 120.19 6.97 127.01 C6.97 128.85 6.97 128.85 6.97 130.72 C6.97 133.27 6.96 135.82 6.96 138.37 C6.95 145.13 6.94 151.89 6.92 158.65 C6.92 159.34 6.92 160.04 6.92 160.76 C6.88 181.1 6.82 201.45 6.76 221.79 C6.76 224.95 6.75 228.11 6.74 231.26 C6.74 232.05 6.73 232.83 6.73 233.64 C6.7 246.46 6.67 259.28 6.65 272.1 C6.63 285.33 6.59 298.57 6.55 311.8 C6.52 319.93 6.51 328.06 6.5 336.19 C6.49 342.39 6.47 348.58 6.45 354.78 C6.44 357.32 6.43 359.86 6.43 362.41 C6.44 365.87 6.42 369.32 6.4 372.78 C6.4 373.8 6.41 374.81 6.41 375.86 C6.4 377.24 6.4 377.24 6.38 378.65 C6.38 379.45 6.38 380.24 6.38 381.07 C6.25 381.7 6.13 382.34 6 383 C5.01 383.66 4.02 384.32 3 385 C2.28 387.06 2.28 387.06 2 389 C2.33 389 2.66 389 3 389 C3.04 391.33 3.04 393.67 3 396 C2.67 396.33 2.34 396.66 2 397 C1.9 398.73 1.88 400.47 1.88 402.21 C1.88 403.34 1.88 404.47 1.88 405.63 C1.88 406.88 1.88 408.13 1.89 409.41 C1.89 410.72 1.89 412.03 1.89 413.38 C1.89 416.97 1.89 420.57 1.9 424.16 C1.9 427.91 1.91 431.67 1.91 435.42 C1.91 442.53 1.92 449.64 1.93 456.75 C1.94 464.85 1.94 472.94 1.95 481.04 C1.96 497.69 1.98 514.35 2 531 C1.34 531.33 0.68 531.66 0 532 C-0.13 513.83 -0.26 495.67 -0.39 477.5 C-0.45 469.06 -0.51 460.61 -0.57 452.17 C-1.17 371.66 -0.97 291.16 -0.55 196.07 C-0.51 186.13 -0.47 176.18 -0.43 166.24 C-0.42 165.53 -0.42 164.82 -0.42 164.09 C-0.4 160.52 -0.39 156.96 -0.37 153.4 C-0.25 124.27 -0.13 95.13 0 66 C-0.66 65.67 -1.32 65.34 -2 65 C-1.34 65 -0.68 65 0 65 C0 43.55 0 22.1 0 0 Z " fill="#1A396E" transform="translate(338,424)"/>
<path d="M0 0 C5.36 -0.37 5.36 -0.37 8.15 1.22 C10.43 3.41 10.6 4.52 10.86 7.63 C10.95 8.52 11.03 9.41 11.11 10.32 C11.18 11.25 11.24 12.17 11.31 13.12 C11.4 14.06 11.48 14.99 11.57 15.95 C11.99 20.89 11.99 20.89 12 23 C11.67 23.33 11.34 23.66 11 24 C10.91 25.52 10.88 27.05 10.89 28.58 C10.89 29.57 10.89 30.56 10.89 31.58 C10.89 32.68 10.9 33.77 10.9 34.9 C10.9 36.63 10.9 36.63 10.91 38.38 C10.91 40.89 10.92 43.4 10.92 45.9 C10.94 49.89 10.94 53.87 10.95 57.85 C10.96 67.05 10.98 76.26 11.01 85.46 C11.03 93.84 11.04 102.22 11.05 110.61 C11.06 115.17 11.07 119.74 11.09 124.31 C11.11 135.1 11.08 145.87 10.56 156.65 C10.52 157.48 10.48 158.31 10.44 159.16 C10.13 164.74 10.13 164.74 9 167 C8.34 167 7.68 167 7 167 C7 161.39 7 155.78 7 150 C6.34 150.99 5.68 151.98 5 153 C4.77 150.95 4.54 148.9 4.32 146.85 C4.18 144.99 4.18 144.99 3 144 C2.9 141.74 2.87 139.47 2.87 137.2 C2.87 136.14 2.87 136.14 2.87 135.05 C2.86 132.69 2.86 130.33 2.87 127.97 C2.87 126.34 2.87 124.7 2.86 123.07 C2.86 119.64 2.86 116.22 2.87 112.79 C2.88 108.39 2.87 103.99 2.87 99.58 C2.86 96.21 2.86 92.84 2.87 89.47 C2.87 87.84 2.87 86.22 2.86 84.59 C2.86 82.33 2.87 80.06 2.87 77.8 C2.87 75.86 2.87 75.86 2.87 73.88 C3 71 3 71 4 70 C5.29 62.38 5.18 54.58 5.19 46.88 C5.2 45.75 5.21 44.62 5.22 43.46 C5.24 37.21 4.67 32 3 26 C2.66 23.33 2.52 20.7 2.38 18 C2.34 17.32 2.3 16.64 2.26 15.94 C2.17 14.29 2.08 12.65 2 11 C-0.77 10.08 -2.4 9.88 -5.26 9.88 C-6.58 9.88 -6.58 9.88 -7.92 9.88 C-8.88 9.88 -9.84 9.88 -10.83 9.89 C-11.86 9.89 -12.88 9.89 -13.93 9.89 C-17.38 9.89 -20.83 9.89 -24.27 9.9 C-26.74 9.9 -29.2 9.91 -31.67 9.91 C-37 9.91 -42.33 9.92 -47.66 9.92 C-55.44 9.94 -63.21 9.94 -70.98 9.95 C-83.68 9.95 -96.37 9.97 -109.07 9.98 C-109.83 9.98 -110.59 9.98 -111.37 9.98 C-118.27 9.99 -125.16 10 -132.06 10.01 C-136.58 10.01 -141.11 10.02 -145.63 10.02 C-146.37 10.02 -147.11 10.02 -147.88 10.02 C-160.46 10.04 -173.04 10.05 -185.62 10.05 C-192.65 10.06 -199.68 10.06 -206.7 10.08 C-235.8 10.12 -264.88 10.03 -293.97 9.56 C-295.25 9.54 -296.52 9.52 -297.84 9.5 C-301.43 9.44 -305.02 9.38 -308.61 9.31 C-309.66 9.3 -310.72 9.28 -311.81 9.26 C-316.96 9.16 -321.92 8.88 -327 8 C-323.5 5.67 -322.13 5.75 -318 5.76 C-316.15 5.75 -316.15 5.75 -314.26 5.75 C-312.91 5.75 -311.56 5.76 -310.21 5.77 C-308.83 5.77 -307.45 5.77 -306.07 5.77 C-303.18 5.77 -300.29 5.78 -297.39 5.79 C-293.68 5.81 -289.97 5.82 -286.26 5.81 C-283.41 5.81 -280.56 5.82 -277.71 5.83 C-276.34 5.83 -274.97 5.83 -273.6 5.83 C-271.69 5.84 -269.78 5.84 -267.87 5.85 C-266.78 5.86 -265.69 5.86 -264.57 5.87 C-262 6 -262 6 -260 7 C-258.56 7.09 -257.12 7.11 -255.68 7.11 C-254.76 7.11 -253.85 7.1 -252.91 7.1 C-251.4 7.09 -251.4 7.09 -249.85 7.08 C-248.78 7.08 -247.72 7.08 -246.62 7.07 C-243.02 7.06 -239.41 7.04 -235.81 7.02 C-233.24 7.01 -230.67 7 -228.1 6.99 C-222.55 6.97 -217 6.95 -211.45 6.92 C-203.43 6.88 -195.41 6.85 -187.38 6.82 C-174.37 6.76 -161.35 6.71 -148.34 6.65 C-135.69 6.59 -123.05 6.53 -110.4 6.48 C-109.62 6.48 -108.84 6.48 -108.04 6.47 C-104.13 6.46 -100.22 6.44 -96.32 6.42 C-63.88 6.29 -31.44 6.15 1 6 C1.33 4.35 1.66 2.7 2 1 C1.34 0.67 0.68 0.34 0 0 Z M8 30 C9 34 9 34 9 34 Z M8 35 C8 36.65 8 38.3 8 40 C8.33 40 8.66 40 9 40 C9 38.35 9 36.7 9 35 C8.67 35 8.34 35 8 35 Z M8 46 C8 47.65 8 49.3 8 51 C8.33 51 8.66 51 9 51 C9 49.35 9 47.7 9 46 C8.67 46 8.34 46 8 46 Z M8 92 C9 94 9 94 9 94 Z M8 131 C9 135 9 135 9 135 Z M8 139 C9 141 9 141 9 141 Z M9 143 C10 145 10 145 10 145 Z M7 145 C8 148 8 148 8 148 Z " fill="#214B90" transform="translate(870,850)"/>
<path d="M0 0 C0 1.65 0 3.3 0 5 C-0.66 5 -1.32 5 -2 5 C-1.67 9.29 -1.34 13.58 -1 18 C-0.67 18 -0.34 18 0 18 C0.25 25.62 0.25 25.62 -2 29 C-2.31 32.26 -2.31 32.26 -2.26 36.07 C-2.27 36.8 -2.27 37.52 -2.27 38.27 C-2.28 40.73 -2.28 43.19 -2.28 45.65 C-2.28 47.42 -2.29 49.19 -2.3 50.96 C-2.31 55.85 -2.32 60.73 -2.32 65.62 C-2.32 70.88 -2.34 76.14 -2.35 81.4 C-2.37 90.52 -2.39 99.64 -2.4 108.77 C-2.41 121.95 -2.44 135.14 -2.46 148.33 C-2.51 169.73 -2.55 191.12 -2.58 212.51 C-2.61 233.3 -2.64 254.09 -2.68 274.88 C-2.69 276.16 -2.69 277.44 -2.69 278.76 C-2.7 285.18 -2.71 291.61 -2.73 298.03 C-2.83 351.35 -2.92 404.68 -3 458 C-3.99 457.67 -4.98 457.34 -6 457 C-6.11 399.21 -6.2 341.43 -6.26 283.64 C-6.26 276.83 -6.27 270.01 -6.27 263.2 C-6.28 262.52 -6.28 261.84 -6.28 261.14 C-6.3 239.14 -6.34 217.14 -6.38 195.14 C-6.43 171.9 -6.46 148.66 -6.47 125.42 C-6.48 111.49 -6.5 97.57 -6.54 83.64 C-6.57 74.1 -6.57 64.56 -6.57 55.02 C-6.56 49.51 -6.57 44 -6.6 38.49 C-6.62 33.45 -6.62 28.41 -6.6 23.37 C-6.6 21.54 -6.61 19.71 -6.62 17.88 C-6.64 15.41 -6.63 12.93 -6.62 10.46 C-6.63 9.74 -6.64 9.02 -6.66 8.28 C-6.62 6.28 -6.62 6.28 -6 3 C-2.22 0 -2.22 0 0 0 Z M-3 22 C-3 23.65 -3 25.3 -3 27 C-2.67 27 -2.34 27 -2 27 C-2 25.35 -2 23.7 -2 22 C-2.33 22 -2.66 22 -3 22 Z " fill="#CBE5F2" transform="translate(528,274)"/>
<path d="M0 0 C0.62 1.88 0.62 1.88 1 4 C-1 6 -1 6 -2.87 6.25 C-3.64 6.25 -4.41 6.25 -5.2 6.25 C-6.08 6.25 -6.97 6.26 -7.88 6.26 C-8.86 6.26 -9.83 6.25 -10.84 6.25 C-11.88 6.25 -12.91 6.25 -13.98 6.25 C-17.47 6.26 -20.96 6.25 -24.45 6.24 C-26.94 6.24 -29.43 6.25 -31.93 6.25 C-38.01 6.25 -44.09 6.25 -50.18 6.24 C-57.26 6.23 -64.34 6.23 -71.42 6.23 C-84.06 6.23 -96.7 6.22 -109.34 6.21 C-121.61 6.19 -133.87 6.18 -146.14 6.19 C-146.89 6.19 -147.65 6.19 -148.42 6.19 C-149.55 6.19 -149.55 6.19 -150.71 6.19 C-164.66 6.19 -178.62 6.18 -192.58 6.17 C-197.51 6.17 -202.45 6.17 -207.39 6.17 C-214.04 6.17 -220.68 6.16 -227.33 6.15 C-229.77 6.15 -232.22 6.15 -234.66 6.15 C-237.99 6.15 -241.32 6.14 -244.65 6.13 C-246.1 6.14 -246.1 6.14 -247.59 6.14 C-252.17 6.12 -256.49 5.94 -261 5 C-257.65 2.76 -257.09 2.83 -253.31 3.38 C-252.5 3.49 -251.7 3.6 -250.86 3.71 C-250.25 3.81 -249.63 3.9 -249 4 C-249 3.34 -249 2.68 -249 2 C-219.65 1.19 -190.32 0.87 -160.96 0.93 C-155.57 0.94 -150.19 0.95 -144.8 0.95 C-131.24 0.96 -117.68 0.98 -104.12 1 C-89.34 1.02 -74.56 1.04 -59.77 1.05 C-53.4 1.06 -47.03 1.07 -40.65 1.08 C-36.71 1.09 -32.77 1.09 -28.83 1.09 C-27.01 1.1 -25.19 1.1 -23.37 1.11 C-20.88 1.11 -18.39 1.11 -15.9 1.11 C-14.83 1.12 -14.83 1.12 -13.73 1.12 C-9.08 1.11 -4.59 0 0 0 Z " fill="#CEE8F5" transform="translate(872,851)"/>
<path d="M0 0 C0.38 0.65 0.76 1.3 1.15 1.97 C2.84 4.22 2.84 4.22 5.51 4.51 C6.52 4.51 7.52 4.52 8.56 4.52 C9.72 4.53 10.88 4.55 12.07 4.56 C13.97 4.55 13.97 4.55 15.92 4.55 C17.27 4.55 18.62 4.57 19.97 4.58 C23.63 4.61 27.3 4.61 30.97 4.61 C34.8 4.61 38.63 4.64 42.46 4.66 C49.72 4.7 56.98 4.72 64.23 4.73 C72.49 4.75 80.76 4.79 89.02 4.83 C106.01 4.91 123.01 4.96 140 5 C140 5.99 140 6.98 140 8 C139.29 8 138.57 8.01 137.84 8.01 C120.51 8.09 103.17 8.18 85.84 8.29 C77.45 8.34 69.07 8.38 60.69 8.42 C53.38 8.45 46.08 8.49 38.77 8.54 C34.9 8.57 31.03 8.59 27.17 8.6 C23.52 8.62 19.88 8.64 16.24 8.67 C14.27 8.68 12.29 8.68 10.32 8.69 C9.14 8.7 7.97 8.71 6.76 8.72 C5.23 8.73 5.23 8.73 3.66 8.74 C0.94 9.01 -0.63 9.72 -3 11 C-5.36 10.76 -5.36 10.76 -7.75 10.12 C-8.55 9.92 -9.35 9.72 -10.17 9.51 C-11.08 9.26 -11.08 9.26 -12 9 C-11.84 9.88 -11.68 10.75 -11.51 11.65 C-11.05 14.68 -10.86 17.49 -10.84 20.54 C-10.83 21.62 -10.82 22.7 -10.81 23.81 C-10.81 24.97 -10.8 26.14 -10.79 27.34 C-10.78 28.58 -10.77 29.82 -10.76 31.1 C-10.74 34.48 -10.72 37.87 -10.7 41.25 C-10.67 44.8 -10.65 48.34 -10.62 51.88 C-10.57 58.59 -10.53 65.29 -10.48 72 C-10.43 79.63 -10.38 87.27 -10.32 94.9 C-10.21 110.6 -10.1 126.3 -10 142 C-11.32 142.33 -12.64 142.66 -14 143 C-15.27 140.45 -15.13 138.67 -15.13 135.82 C-15.13 134.72 -15.13 133.62 -15.14 132.49 C-15.13 131.28 -15.13 130.07 -15.13 128.83 C-15.13 127.56 -15.13 126.29 -15.13 124.98 C-15.14 121.49 -15.14 118 -15.13 114.51 C-15.13 110.86 -15.13 107.21 -15.14 103.56 C-15.14 97.42 -15.14 91.29 -15.13 85.15 C-15.12 78.07 -15.13 70.98 -15.13 63.89 C-15.14 57.8 -15.14 51.72 -15.13 45.63 C-15.13 42 -15.13 38.36 -15.14 34.73 C-15.14 30.67 -15.13 26.62 -15.13 22.56 C-15.13 21.36 -15.13 20.15 -15.14 18.91 C-15.13 17.81 -15.13 16.7 -15.13 15.56 C-15.13 14.6 -15.13 13.64 -15.13 12.66 C-15 10.01 -14.59 7.58 -14 5 C-8.74 4.68 -5.55 5.33 -1 8 C-1 7.34 -1 6.68 -1 6 C-1.99 5.67 -2.98 5.34 -4 5 C-4.69 2.94 -4.69 2.94 -5 1 C-3.35 1.33 -1.7 1.66 0 2 C0 1.34 0 0.68 0 0 Z " fill="#224B8F" transform="translate(355,269)"/>
<path d="M0 0 C0.66 0.33 1.32 0.66 2 1 C2.41 3.94 2.41 3.94 2.62 7.56 C2.7 8.76 2.77 9.96 2.85 11.19 C2.9 12.12 2.95 13.05 3 14 C3.99 14.33 4.98 14.66 6 15 C5.67 15.66 5.34 16.32 5 17 C5 18.86 5 20.72 5.01 22.58 C5.03 36.51 5.04 50.44 5.05 64.38 C5.06 71.53 5.06 78.69 5.08 85.85 C5.09 92.1 5.09 98.35 5.09 104.61 C5.1 107.91 5.1 111.21 5.11 114.51 C5.13 126.56 5.13 138.6 4.56 150.65 C4.52 151.48 4.48 152.31 4.44 153.16 C4.13 158.74 4.13 158.74 3 161 C2.34 161 1.68 161 1 161 C1 155.39 1 149.78 1 144 C0.34 144.99 -0.32 145.98 -1 147 C-1.23 144.95 -1.46 142.9 -1.68 140.85 C-1.82 138.99 -1.82 138.99 -3 138 C-3.1 135.74 -3.13 133.47 -3.13 131.2 C-3.13 130.49 -3.13 129.78 -3.13 129.05 C-3.14 126.69 -3.14 124.33 -3.13 121.97 C-3.13 120.34 -3.13 118.7 -3.14 117.07 C-3.14 113.64 -3.14 110.22 -3.13 106.79 C-3.12 102.39 -3.13 97.99 -3.13 93.58 C-3.14 90.21 -3.14 86.84 -3.13 83.47 C-3.13 81.84 -3.13 80.22 -3.14 78.59 C-3.14 76.33 -3.13 74.06 -3.13 71.8 C-3.13 70.51 -3.13 69.22 -3.13 67.88 C-3 65 -3 65 -2 64 C-0.71 56.38 -0.82 48.58 -0.81 40.88 C-0.8 39.75 -0.79 38.62 -0.78 37.46 C-0.76 31.21 -1.32 25.99 -3 20 C-3.43 17.26 -3.67 14.52 -3.88 11.75 C-3.95 11.06 -4.02 10.36 -4.09 9.65 C-4.36 6.03 -4.32 4.4 -2.01 1.52 C-1.35 1.02 -0.68 0.52 0 0 Z M2 24 C3 28 3 28 3 28 Z M2 29 C2 30.65 2 32.3 2 34 C2.33 34 2.66 34 3 34 C3 32.35 3 30.7 3 29 C2.67 29 2.34 29 2 29 Z M2 40 C2 41.65 2 43.3 2 45 C2.33 45 2.66 45 3 45 C3 43.35 3 41.7 3 40 C2.67 40 2.34 40 2 40 Z M2 86 C3 88 3 88 3 88 Z M2 125 C3 129 3 129 3 129 Z M2 133 C3 135 3 135 3 135 Z M3 137 C4 139 4 139 4 139 Z M1 139 C2 142 2 142 2 142 Z " fill="#21498C" transform="translate(876,856)"/>
<path d="M0 0 C2.5 0.1 4.98 0.13 7.48 0.12 C8.28 0.12 9.07 0.13 9.89 0.13 C12.6 0.13 15.3 0.12 18 0.12 C19.94 0.12 21.89 0.12 23.83 0.12 C29.2 0.13 34.57 0.12 39.94 0.12 C45.71 0.11 51.49 0.11 57.27 0.11 C67.29 0.11 77.31 0.11 87.33 0.11 C101.82 0.1 116.31 0.1 130.8 0.09 C154.3 0.09 177.8 0.08 201.31 0.08 C224.15 0.07 246.98 0.06 269.82 0.05 C270.53 0.05 271.23 0.05 271.95 0.05 C279.02 0.05 286.08 0.05 293.15 0.05 C307.54 0.05 321.94 0.05 336.33 0.04 C336.99 0.04 337.65 0.04 338.34 0.04 C382.56 0.03 426.78 0.02 471 0 C471.33 0.66 471.66 1.32 472 2 C424.87 2.13 377.74 2.26 330.61 2.38 C324.96 2.4 319.32 2.41 313.67 2.43 C311.99 2.43 311.99 2.43 310.27 2.44 C294.6 2.48 278.93 2.52 263.26 2.56 C87.88 3.05 87.88 3.05 21.62 3.09 C16.49 3.09 11.37 3.1 6.25 3.1 C0.47 3.11 -5.3 3.12 -11.08 3.11 C-13.13 3.12 -15.19 3.12 -17.24 3.12 C-19.99 3.13 -22.74 3.12 -25.48 3.12 C-26.27 3.12 -27.06 3.13 -27.87 3.13 C-32.02 3.12 -35.93 2.81 -40 2 C-33.54 -2.31 -24.84 -1.36 -17.31 -1.62 C-16.08 -1.68 -14.84 -1.73 -13.57 -1.78 C-12.39 -1.83 -11.21 -1.87 -9.99 -1.91 C-8.91 -1.95 -7.83 -2 -6.72 -2.04 C-4.09 -2 -1.96 -1.96 0 0 Z " fill="#010409" transform="translate(387,1016)"/>
<path d="M0 0 C0.66 0.33 1.32 0.66 2 1 C2 104.95 2 208.9 2 316 C1.34 316.33 0.68 316.66 0 317 C-0.92 281.07 -1.09 245.17 -0.91 209.24 C-0.87 201.96 -0.84 194.68 -0.82 187.4 C-0.76 174.44 -0.71 161.47 -0.65 148.51 C-0.59 135.95 -0.53 123.4 -0.48 110.85 C-0.48 110.06 -0.48 109.28 -0.47 108.48 C-0.46 104.56 -0.44 100.64 -0.42 96.72 C-0.29 64.48 -0.15 32.24 0 0 Z " fill="#CEE8F5" transform="translate(338,490)"/>
<path d="M0 0 C41.51 -0.02 83.03 -0.04 124.54 -0.05 C129.45 -0.05 134.35 -0.05 139.26 -0.05 C140.72 -0.06 140.72 -0.06 142.22 -0.06 C158.01 -0.06 173.8 -0.07 189.6 -0.08 C205.82 -0.09 222.03 -0.09 238.25 -0.09 C248.25 -0.1 258.25 -0.1 268.25 -0.11 C275.11 -0.11 281.98 -0.11 288.85 -0.11 C292.8 -0.11 296.76 -0.11 300.71 -0.12 C331.17 -0.16 331.17 -0.16 344 1 C344 1.33 344 1.66 344 2 C336.76 3.13 329.64 3.14 322.32 3.12 C320.93 3.12 319.54 3.12 318.15 3.12 C314.35 3.13 310.55 3.12 306.75 3.12 C302.64 3.11 298.54 3.11 294.43 3.11 C287.33 3.11 280.22 3.11 273.11 3.11 C262.84 3.1 252.56 3.09 242.29 3.09 C225.61 3.09 208.94 3.08 192.27 3.08 C176.08 3.07 159.88 3.06 143.69 3.05 C142.69 3.05 141.69 3.05 140.66 3.05 C135.65 3.05 130.64 3.05 125.63 3.05 C84.09 3.04 42.54 3.02 1 3 C0.67 2.01 0.34 1.02 0 0 Z " fill="#010409" transform="translate(526,850)"/>
<path d="M0 0 C0.38 0.65 0.76 1.3 1.15 1.97 C2.84 4.22 2.84 4.22 5.51 4.51 C6.52 4.51 7.52 4.52 8.56 4.52 C9.72 4.53 10.88 4.55 12.07 4.56 C13.97 4.55 13.97 4.55 15.92 4.55 C17.27 4.55 18.62 4.57 19.97 4.58 C23.63 4.61 27.3 4.61 30.97 4.61 C34.8 4.61 38.63 4.64 42.46 4.66 C49.72 4.7 56.98 4.72 64.23 4.73 C72.49 4.75 80.76 4.79 89.02 4.83 C106.01 4.91 123.01 4.96 140 5 C140 5.99 140 6.98 140 8 C139.29 8 138.57 8.01 137.84 8.01 C120.51 8.09 103.17 8.18 85.84 8.29 C77.45 8.34 69.07 8.38 60.69 8.42 C53.38 8.45 46.08 8.49 38.77 8.54 C34.9 8.57 31.03 8.59 27.17 8.6 C23.52 8.62 19.88 8.64 16.24 8.67 C14.27 8.68 12.29 8.68 10.32 8.69 C9.14 8.7 7.97 8.71 6.76 8.72 C5.23 8.73 5.23 8.73 3.66 8.74 C0.94 9.01 -0.63 9.72 -3 11 C-5.36 10.76 -5.36 10.76 -7.75 10.12 C-8.55 9.92 -9.35 9.72 -10.17 9.51 C-11.08 9.26 -11.08 9.26 -12 9 C-12.33 9.66 -12.66 10.32 -13 11 C-13.33 9.02 -13.66 7.04 -14 5 C-8.74 4.68 -5.55 5.33 -1 8 C-1 7.34 -1 6.68 -1 6 C-1.99 5.67 -2.98 5.34 -4 5 C-4.69 2.94 -4.69 2.94 -5 1 C-3.35 1.33 -1.7 1.66 0 2 C0 1.34 0 0.68 0 0 Z " fill="#21498B" transform="translate(355,269)"/>
<path d="M0 0 C0.33 0.66 0.66 1.32 1 2 C3 2.32 3 2.32 5.31 2.38 C8.69 2.67 9.78 2.83 12.56 4.94 C14 7 14 7 14 9 C13.15 8.69 12.31 8.38 11.44 8.06 C7.47 6.74 7.47 6.74 1 6 C0.67 51.21 0.34 96.42 0 143 C-0.66 143.33 -1.32 143.66 -2 144 C-2.9 127.75 -3.15 111.55 -3.13 95.27 C-3.13 92.78 -3.13 90.29 -3.14 87.8 C-3.14 82.62 -3.14 77.45 -3.13 72.28 C-3.13 66.98 -3.13 61.68 -3.13 56.37 C-3.14 49.92 -3.14 43.47 -3.13 37.02 C-3.13 34.57 -3.13 32.12 -3.14 29.68 C-3.14 26.28 -3.13 22.88 -3.13 19.48 C-3.13 18.47 -3.13 17.46 -3.14 16.42 C-3.13 15.5 -3.13 14.58 -3.13 13.62 C-3.13 12.82 -3.13 12.02 -3.13 11.2 C-3 9.01 -2.6 7.1 -2 5 C-2.66 4.67 -3.32 4.34 -4 4 C-2.68 2.68 -1.36 1.36 0 0 Z " fill="#CDE7F4" transform="translate(340,268)"/>
<path d="M0 0 C45.87 0 91.74 0 139 0 C139.33 0.99 139.66 1.98 140 3 C122.04 3.07 104.08 3.12 86.12 3.16 C77.79 3.17 69.45 3.19 61.11 3.23 C53.85 3.26 46.58 3.28 39.31 3.28 C35.47 3.29 31.62 3.3 27.77 3.32 C24.15 3.34 20.53 3.34 16.91 3.34 C14.94 3.34 12.97 3.36 11.01 3.37 C9.84 3.37 8.68 3.37 7.48 3.36 C5.96 3.36 5.96 3.36 4.4 3.37 C3.61 3.25 2.82 3.13 2 3 C1.34 2.01 0.68 1.02 0 0 Z " fill="#CEE8F5" transform="translate(356,271)"/>
<path d="M0 0 C0.99 0.33 1.98 0.66 3 1 C3 40.93 3 80.86 3 122 C2.67 121.34 2.34 120.68 2 120 C1.34 120 0.68 120 0 120 C0 80.4 0 40.8 0 0 Z " fill="#CEE8F5" transform="translate(878,873)"/>
<path d="M0 0 C1.35 2.7 1.22 4.92 1.32 7.93 C1.38 9.74 1.38 9.74 1.44 11.59 C1.48 12.86 1.52 14.13 1.56 15.44 C1.61 16.67 1.65 17.91 1.69 19.18 C1.94 26.45 2.06 33.72 2 41 C-0.48 41.5 -0.48 41.5 -3 42 C-3.33 45.3 -3.66 48.6 -4 52 C-3.34 52.33 -2.68 52.66 -2 53 C-1.88 58.75 -1.88 58.75 -3 61 C-1.35 61.33 0.3 61.66 2 62 C0.19 62.69 0.19 62.69 -2 63 C-4.24 61.37 -4.92 60.41 -5.43 57.66 C-5.46 56.76 -5.48 55.85 -5.51 54.91 C-5.57 53.4 -5.57 53.4 -5.62 51.86 C-5.64 50.8 -5.66 49.73 -5.69 48.62 C-5.72 47.53 -5.75 46.43 -5.79 45.3 C-5.87 42.2 -5.94 39.1 -6 36 C-6.03 34.78 -6.06 33.56 -6.09 32.3 C-6.22 21.86 -5.53 11.42 -5 1 C-5.66 0.67 -6.32 0.34 -7 0 C-3.88 -1.04 -2.97 -1.09 0 0 Z " fill="#204684" transform="translate(343,956)"/>
<path d="M0 0 C0.99 0.33 1.98 0.66 3 1 C3 16.18 3 31.36 3 47 C1.68 46.34 0.36 45.68 -1 45 C-1.02 38.91 -1.04 32.83 -1.05 26.74 C-1.06 24.67 -1.07 22.59 -1.08 20.52 C-1.09 17.55 -1.09 14.58 -1.1 11.6 C-1.1 10.67 -1.11 9.74 -1.11 8.78 C-1.11 7.92 -1.11 7.06 -1.11 6.17 C-1.12 5.41 -1.12 4.66 -1.12 3.87 C-1 2 -1 2 0 0 Z " fill="#0A89FB" transform="translate(522,754)"/>
<path d="M0 0 C4.1 -0.09 8.21 -0.14 12.31 -0.19 C13.48 -0.21 14.65 -0.24 15.85 -0.26 C16.97 -0.27 18.09 -0.28 19.24 -0.29 C20.27 -0.31 21.3 -0.32 22.36 -0.34 C25 0 25 0 26.86 1.52 C27.24 2.01 27.61 2.5 28 3 C26 5 26 5 23.62 5.2 C22.71 5.17 21.81 5.15 20.88 5.12 C19.96 5.11 19.05 5.09 18.12 5.07 C17.42 5.05 16.72 5.02 16 5 C16.66 5.66 17.32 6.32 18 7 C11.59 9.33 6.72 10.59 0 9 C-0.33 8.34 -0.66 7.68 -1 7 C-1.99 6.34 -2.98 5.68 -4 5 C-2.68 4.34 -1.36 3.68 0 3 C0 2.01 0 1.02 0 0 Z " fill="#163868" transform="translate(495,270)"/>
<path d="M0 0 C0.66 0.33 1.32 0.66 2 1 C2.41 3.94 2.41 3.94 2.62 7.56 C2.7 8.76 2.77 9.96 2.85 11.19 C2.9 12.12 2.95 13.05 3 14 C3.99 14.33 4.98 14.66 6 15 C5.67 15.66 5.34 16.32 5 17 C4.01 16.67 3.02 16.34 2 16 C1.67 33.82 1.34 51.64 1 70 C0.67 70 0.34 70 0 70 C-0.93 59.02 -1.08 48.15 -0.88 37.14 C-0.81 30.97 -1.33 25.92 -3 20 C-3.43 17.26 -3.67 14.52 -3.88 11.75 C-3.95 11.06 -4.02 10.36 -4.09 9.65 C-4.36 6.03 -4.32 4.4 -2.01 1.52 C-1.35 1.02 -0.68 0.52 0 0 Z " fill="#1D4C91" transform="translate(876,856)"/>
<path d="M0 0 C3 0.12 3 0.12 4 1.12 C6.56 1.19 9.09 1.19 11.65 1.15 C13.23 1.14 14.8 1.13 16.38 1.12 C18.88 1.09 21.38 1.06 23.88 1.03 C26.28 1 28.68 0.98 31.09 0.96 C31.83 0.95 32.58 0.94 33.35 0.92 C37.13 0.91 38.77 0.97 42 3.12 C38.46 4.3 35.2 4.34 31.52 4.41 C30.78 4.42 30.05 4.44 29.29 4.46 C26.94 4.52 24.6 4.57 22.25 4.62 C19.17 4.69 16.09 4.77 13.02 4.84 C12.32 4.86 11.62 4.87 10.9 4.88 C6.51 4.99 2.32 5.43 -2 6.12 C-2.66 4.48 -3.32 2.83 -4 1.12 C-3 0.12 -3 0.12 0 0 Z " fill="#CEE8F5" transform="translate(344,1010.875)"/>
<path d="M0 0 C1.32 0.33 2.64 0.66 4 1 C3.01 1.5 3.01 1.5 2 2 C1.36 4.7 0.83 7.33 0.38 10.06 C0.24 10.82 0.11 11.58 -0.03 12.36 C-0.36 14.24 -0.68 16.12 -1 18 C-1.66 18 -2.32 18 -3 18 C-3.66 14.7 -4.32 11.4 -5 8 C-7.93 7.02 -9.96 6.92 -13 7 C-12.34 5.35 -11.68 3.7 -11 2 C-7.37 2 -3.74 2 0 2 C0 1.34 0 0.68 0 0 Z " fill="#14305A" transform="translate(522,272)"/>
<path d="M0 0 C2 2 2 2 2.23 5.53 C2.23 7.04 2.22 8.56 2.2 10.07 C2.19 10.87 2.19 11.66 2.19 12.48 C2.18 15.03 2.15 17.58 2.12 20.12 C2.11 21.85 2.11 23.58 2.1 25.3 C2.08 29.53 2.04 33.77 2 38 C1.01 38.5 1.01 38.5 0 39 C-3.49 27.19 -0.62 12.15 0 0 Z " fill="#CEE8F5" transform="translate(338,957)"/>
<path d="M0 0 C1.62 1.62 1.62 1.62 3 4 C2.44 7.19 2.44 7.19 1 10 C-2.16 11.3 -4.49 10.88 -7.75 10.06 C-8.95 9.77 -8.95 9.77 -10.17 9.47 C-10.78 9.32 -11.38 9.16 -12 9 C-12.33 9.66 -12.66 10.32 -13 11 C-13.33 9.02 -13.66 7.04 -14 5 C-8.74 4.68 -5.55 5.33 -1 8 C-1 7.34 -1 6.68 -1 6 C-1.99 5.67 -2.98 5.34 -4 5 C-4.69 2.94 -4.69 2.94 -5 1 C-3.35 1.33 -1.7 1.66 0 2 C0 1.34 0 0.68 0 0 Z " fill="#11264A" transform="translate(355,269)"/>
<path d="M0 0 C0.33 0.99 0.66 1.98 1 3 C-2.22 4.07 -3.43 3.87 -6.69 3.31 C-11.55 2.72 -14.18 3.6 -18.21 6.29 C-20 7 -20 7 -22.23 6.12 C-22.81 5.75 -23.4 5.38 -24 5 C-24 4.34 -24 3.68 -24 3 C-22.35 3 -20.7 3 -19 3 C-19 2.34 -19 1.68 -19 1 C-16.09 -0.46 -13.3 -0.39 -10.06 -0.62 C-8.82 -0.72 -7.57 -0.82 -6.29 -0.91 C-3 -1 -3 -1 0 0 Z " fill="#C9E3F0" transform="translate(522,271)"/>
<path d="M0 0 C0.66 0 1.32 0 2 0 C2 17.16 2 34.32 2 52 C1.67 52 1.34 52 1 52 C0.07 41.06 -0.09 30.2 0.04 19.23 C0.08 14.36 0.03 9.62 -0.56 4.78 C-0.71 3.53 -0.85 2.28 -1 1 C-0.67 0.67 -0.34 0.34 0 0 Z " fill="#000002" transform="translate(875,874)"/>
<path d="M0 0 C1.25 0.01 2.51 0.02 3.8 0.03 C4.75 0.04 5.71 0.05 6.69 0.06 C6.36 2.04 6.03 4.02 5.69 6.06 C5.03 6.06 4.37 6.06 3.69 6.06 C3.36 6.72 3.03 7.38 2.69 8.06 C1.62 7.42 0.54 6.78 -0.56 6.12 C-3.12 4.66 -5.37 3.53 -8.31 3.06 C-8.31 3.72 -8.31 4.38 -8.31 5.06 C-9.63 5.06 -10.95 5.06 -12.31 5.06 C-12.31 3.74 -12.31 2.42 -12.31 1.06 C-8.16 0.05 -4.27 -0.04 0 0 Z " fill="#217AD1" transform="translate(870.3125,1010.9375)"/>
<path d="M0 0 C0.99 0.33 1.98 0.66 3 1 C3.03 2.98 3.05 4.96 3.06 6.94 C3.07 8.04 3.09 9.14 3.1 10.28 C3 13 3 13 2 14 C2.33 14 2.66 14 3 14 C3 16.64 3 19.28 3 22 C2.01 21.67 1.02 21.34 0 21 C0 14.07 0 7.14 0 0 Z " fill="#4EAAF8" transform="translate(522,732)"/>
<path d="M0 0 C0.99 0.33 1.98 0.66 3 1 C3.66 6.61 4.32 12.22 5 18 C3.68 17.67 2.36 17.34 1 17 C0.94 16.18 0.88 15.36 0.82 14.52 C0.73 13.44 0.65 12.36 0.56 11.25 C0.48 10.18 0.4 9.12 0.32 8.02 C0.08 5.09 0.08 5.09 -0.6 2.67 C-0.73 2.12 -0.86 1.57 -1 1 C-0.67 0.67 -0.34 0.34 0 0 Z " fill="#CEE8F5" transform="translate(877,852)"/>
<path d="M0 0 C0.66 0 1.32 0 2 0 C2.03 3.29 2.05 6.58 2.06 9.88 C2.07 10.81 2.08 11.75 2.09 12.71 C2.09 13.61 2.09 14.51 2.1 15.43 C2.1 16.26 2.11 17.08 2.11 17.94 C2 20 2 20 1 22 C0.34 22 -0.32 22 -1 22 C-1.03 18.9 -1.05 15.79 -1.06 12.69 C-1.07 11.81 -1.08 10.93 -1.09 10.02 C-1.09 9.17 -1.09 8.32 -1.1 7.45 C-1.1 6.67 -1.11 5.89 -1.11 5.08 C-1 3 -1 3 0 0 Z " fill="#000104" transform="translate(878,995)"/>
<path d="M0 0 C0.99 0.5 0.99 0.5 2 1 C1.67 4.3 1.34 7.6 1 11 C1.66 11.33 2.32 11.66 3 12 C3.12 17.75 3.12 17.75 2 20 C3.65 20.33 5.3 20.66 7 21 C5.19 21.69 5.19 21.69 3 22 C0.89 20.43 0.09 19.53 -0.34 16.92 C-0.32 16.13 -0.31 15.35 -0.29 14.55 C-0.28 13.7 -0.27 12.86 -0.26 11.98 C-0.24 11.1 -0.21 10.22 -0.19 9.31 C-0.17 8.42 -0.16 7.53 -0.15 6.61 C-0.11 4.4 -0.06 2.2 0 0 Z " fill="#040914" transform="translate(338,997)"/>
<path d="M0 0 C0 4.29 0 8.58 0 13 C-4 10 -4 10 -5 7.06 C-5 4 -5 4 -3.12 1.62 C-1 0 -1 0 0 0 Z " fill="#000002" transform="translate(877,856)"/>
<path d="M0 0 C0.99 1.32 1.98 2.64 3 4 C2.25 5.94 2.25 5.94 1 8 C-1.12 8.75 -1.12 8.75 -3 9 C-2.34 8.67 -1.68 8.34 -1 8 C-1 7.34 -1 6.68 -1 6 C-1.99 5.67 -2.98 5.34 -4 5 C-4.69 2.94 -4.69 2.94 -5 1 C-2.52 1.5 -2.52 1.5 0 2 C0 1.34 0 0.68 0 0 Z " fill="#0B386A" transform="translate(355,269)"/>
<path d="M0 0 C0.66 0 1.32 0 2 0 C2.33 0.99 2.66 1.98 3 3 C5.31 3.33 7.62 3.66 10 4 C10 4.33 10 4.66 10 5 C8.35 5 6.7 5 5 5 C4.67 6.65 4.34 8.3 4 10 C2 8.94 2 8.94 0 7 C-0.25 3.31 -0.25 3.31 0 0 Z " fill="#1F4482" transform="translate(524,849)"/>
<path d="M0 0 C1.98 0 3.96 0 6 0 C6.93 2.61 7.15 3.64 6.06 6.25 C5.54 7.12 5.54 7.12 5 8 C3.68 7.34 2.36 6.68 1 6 C1.33 4.35 1.66 2.7 2 1 C1.34 0.67 0.68 0.34 0 0 Z " fill="#1A3D75" transform="translate(870,850)"/>
<path d="M0 0 C0.66 1.32 1.32 2.64 2 4 C-0.25 5.62 -0.25 5.62 -3 7 C-5.31 6.19 -5.31 6.19 -7 5 C-7 4.34 -7 3.68 -7 3 C-5.35 3 -3.7 3 -2 3 C-2 2.34 -2 1.68 -2 1 C-1.34 0.67 -0.68 0.34 0 0 Z " fill="#619CD6" transform="translate(505,271)"/>
<path d="M0 0 C1.12 0.07 1.12 0.07 2.27 0.14 C3.08 0.19 3.89 0.24 4.72 0.29 C6 0.37 6 0.37 7.3 0.46 C8.58 0.54 8.58 0.54 9.88 0.62 C12 0.75 14.12 0.88 16.23 1.02 C16.23 1.35 16.23 1.68 16.23 2.02 C4.73 3.69 4.73 3.69 -0.77 3.02 C-1.43 2.36 -2.09 1.7 -2.77 1.02 C-1.77 0.02 -1.77 0.02 0 0 Z " fill="#0E1F3D" transform="translate(853.765869140625,849.978271484375)"/>
<path d="M0 0 C-0.99 0.5 -0.99 0.5 -2 1 C-1.34 1.66 -0.68 2.32 0 3 C-3.3 3.66 -6.6 4.32 -10 5 C-5.03 -1.68 -5.03 -1.68 0 0 Z " fill="#19376A" transform="translate(513,274)"/>
<path d="M0 0 C0.33 0 0.66 0 1 0 C1 2.31 1 4.62 1 7 C0.67 7 0.34 7 0 7 C0 4.69 0 2.38 0 0 Z " fill="#224B8F" transform="translate(526,304)"/>
<path d="M0 0 C0.66 0 1.32 0 2 0 C2 0.66 2 1.32 2 2 C1.34 2 0.68 2 0 2 C0 1.34 0 0.68 0 0 Z " fill="#CEE8F5" transform="translate(875,1018)"/>
<path d="M0 0 C3 1 3 1 3 1 Z " fill="#8CC8F7" transform="translate(862,1014)"/>
<path d="" fill="#000002" transform="translate(0,0)"/>
<path d="" fill="#CEE8F5" transform="translate(0,0)"/>
<path d="" fill="#000002" transform="translate(0,0)"/>
</svg>
